<?xml version="1.0" standalone="no"?><!DOCTYPE svg PUBLIC "-//W3C//DTD SVG 1.1//EN" "http://www.w3.org/Graphics/SVG/1.1/DTD/svg11.dtd"><svg t="1602232209437" class="icon" viewBox="0 0 1024 1024" version="1.1" xmlns="http://www.w3.org/2000/svg" p-id="5453" width="64" height="64" xmlns:xlink="http://www.w3.org/1999/xlink"><defs><style type="text/css"></style></defs><path d="M715.064223 960.059831H192.813928a98.872453 98.872453 0 0 1-98.764081-98.76408V287.857196a98.872453 98.872453 0 0 1 98.764081-98.782143h522.250295a98.872453 98.872453 0 0 1 98.76408 98.782143v573.438555a98.872453 98.872453 0 0 1-98.76408 98.76408zM192.813928 243.261637a44.631683 44.631683 0 0 0-44.577497 44.595559v573.438555a44.631683 44.631683 0 0 0 44.577497 44.577496h522.250295a44.631683 44.631683 0 0 0 44.577496-44.577496V287.857196a44.631683 44.631683 0 0 0-44.577496-44.595559z" fill="#1296db" p-id="5454"></path><path d="M850.602932 830.030092h-63.867921a27.093292 27.093292 0 0 1 0-54.186584h63.867921a44.649745 44.649745 0 0 0 44.595558-44.595559V157.809394a44.631683 44.631683 0 0 0-44.595558-44.577496H328.370698a44.631683 44.631683 0 0 0-44.595558 44.577496v58.358951a27.093292 27.093292 0 1 1-54.186584 0V157.809394a98.872453 98.872453 0 0 1 98.782142-98.76408h522.232234a98.890516 98.890516 0 0 1 98.782142 98.76408v573.438555a98.908578 98.908578 0 0 1-98.782142 98.782143z" fill="#1296db" p-id="5455"></path><path d="M638.787575 457.605701H257.332087a27.093292 27.093292 0 0 1 0-54.186584h381.455488a27.093292 27.093292 0 0 1 0 54.186584zM638.787575 599.863546H257.332087a27.093292 27.093292 0 0 1 0-54.186584h381.455488a27.093292 27.093292 0 0 1 0 54.186584zM450.164077 742.103328H257.332087a27.093292 27.093292 0 0 1 0-54.186583h192.83199a27.093292 27.093292 0 1 1 0 54.186583z" fill="#1296db" p-id="5456"></path></svg>